<?xml version="1.0" encoding="UTF-8"?>
<svg id="Layer_2" data-name="Layer 2" xmlns="http://www.w3.org/2000/svg" viewBox="0 0 171.19 217.13">
  <defs>
    <style>
      .cls-1 {
        fill: #fff;
      }

      .cls-2 {
        fill: #020202;
      }

      .cls-3 {
        fill: none;
      }

      .cls-4 {
        fill: #010101;
      }
    </style>
  </defs>
  <g id="Layer_1-2" data-name="Layer 1">
    <path class="cls-4" d="m22.52,206.4c14.07,7.08,29.33,6.31,44.17,9.7,1.68.47,9.28-1.06,8.99,1.02-23.97.17-44.85-2.44-65.04-10.56-35.41-14.92,29.62-33.1,20.79-25.54-16.38,2.16-34.6,18.68-8.91,25.38Z"/>
    <path class="cls-2" d="m47.25,205.1c-6.4-2.54-3.11-8.29,2.37-9.03,1.64,1.78-5.48,7.44,7.53,9.17,26.67,5.01.06,4.79-9.9-.14Z"/>
    <path d="m99.1,1.57c11.97-8.58-20.88,19.45,7.25,49.99h0c19.66,42.05-28.77,44.87-21.95,67.93h0c-1.39,9.73-8.15-11.57-2.61-15.64,9.79-10.18,19.24-18.54,20.89-29.34.87-21.13-21.03-37.54-11.04-60.47h-.01c.48-4.01,3.63-9.2,7.48-12.47Z"/>
    <path class="cls-2" d="m69.69,144.23c-9.4-.49-21.93.92-26.93-7.72,2.33-4.61,8.6-7.26,4.96-.03h-.01c2.3,5.85,27.3,6,21.98,7.76Z"/>
    <path class="cls-3" d="m142.15,154.33c-3.45,5.79-3.16,13.74-7.6,19.75,7.84-.25,18.55-17.79,7.6-19.75Z"/>
    <polygon points="149.24 148.22 149.24 148.23 149.25 148.23 149.24 148.22"/>
    <path d="m84.87,171.71l4.71-21.5c-2.56.04-5.8.01-9.42-.12l4.71,21.63Z"/>
    <path d="m143.28,178.99c9.47-7.26,16.08-21.43,5.96-30.76-8.57-1.49-5.92-7.12-6.78-14.48-4.52-9.94-40.08-12.27-19.96-7.5,35.85,14.9-13.94,21.66-28.97,23.63l.5,27.05h-3.1l-.31-20.05-4.67,20.05h-2.18l-4.64-20.05-.31,20.05h-3.14l.5-27.03c-18.28-1.02-42.76-4.76-41.27-15.68,5.32-5.73,14.28-8.14,21.26-8.94,10.21-8.4,32.9,10.91,20.48-2.91-9.9-22.65,7.83-26.32,13.3-42.95,4.83-4.45-6.83-22.8-7.32-15.93,3.95,3.6,5.1,9.78,2.52,13.85-36.99,34.48,3.08,45.21-29.97,44.96-8.71,3.21-20.4,1.93-27.88,9.98-6.58,40.45,20.4,72.69,54.93,74.57v-25.31h-6.57v-3.06h18.38v3.06h-6.38v25.36c10.24-.39,21.01-3.43,31.66-9.69,1.06-7.75,19.01-19.44,24.71-15.06,32.45,9.94,11.85,23.55-6.48,29.76-4.35-.22-2.34,2.7.56.42,4.83-.88,9.41-1.64,13.92-3.18,34.14-8.3,17.25-27.46-8.75-30.16Zm-8.74-4.91c4.45-6.01,4.16-13.96,7.6-19.75,10.95,1.96.24,19.5-7.6,19.75Z"/>
    <path class="cls-1" d="m82.23,206.84v1.11h5.42v-1.06c-1.83.07-3.63.05-5.42-.05Z"/>
  </g>
</svg>